<svg width="90" height="38" viewBox="0 0 90 38" fill="none" xmlns="http://www.w3.org/2000/svg">
<path fill-rule="evenodd" clip-rule="evenodd" d="M44.8653 6.28C45.5753 5.63 45.9353 4.75 45.9353 3.65C45.9353 2.51 45.5753 1.62 44.8653 0.97C44.1553 0.33 43.3453 0 42.3353 0C41.3253 0 40.4653 0.32 39.7553 0.97C39.0453 1.62 38.6853 2.55 38.6853 3.65C38.6853 4.75 39.0453 5.63 39.7553 6.28C40.4653 6.93 41.3653 7.25 42.3353 7.25C43.3053 7.25 44.1553 6.93 44.8653 6.28ZM39.4153 37.23H45.3053V10.45H39.4153V37.23Z" fill="#121212"/>
<path d="M51.2954 4.37997L57.1854 3.40997V10.45H66.2454V15.37H57.1854V26.4C57.1854 28.45 57.5054 29.91 58.1554 30.78C58.8054 31.66 59.9054 32.1 61.4654 32.1C62.5354 32.1 63.4854 31.99 64.3154 31.76C65.1454 31.53 65.8054 31.32 66.2854 31.13L67.2554 35.81C66.5754 36.1 65.6754 36.4 64.5754 36.71C63.4754 37.02 62.1754 37.17 60.6754 37.17C58.8554 37.17 57.3354 36.93 56.1154 36.44C54.8954 35.95 53.9354 35.25 53.2154 34.32C52.5054 33.39 51.9954 32.27 51.7054 30.96C51.4154 29.64 51.2654 28.14 51.2654 26.45V4.37997H51.2954Z" fill="#121212"/>
<path d="M69.3054 23.87C69.3054 21.99 69.5954 20.22 70.1854 18.58C70.7654 16.94 71.6054 15.52 72.6954 14.32C73.7854 13.12 75.1054 12.18 76.6654 11.49C78.2254 10.81 79.9754 10.47 81.9254 10.47C84.3254 10.47 86.6054 10.91 88.7454 11.79L87.4754 16.61C86.7954 16.32 86.0254 16.07 85.1654 15.88C84.3054 15.68 83.3854 15.59 82.4154 15.59C80.1054 15.59 78.3554 16.31 77.1554 17.76C75.9554 19.21 75.3554 21.24 75.3554 23.87C75.3554 26.5 75.9254 28.41 77.0654 29.89C78.2054 31.37 80.1154 32.11 82.8154 32.11C83.8254 32.11 84.8154 32.01 85.7854 31.82C86.7554 31.63 87.6054 31.38 88.3154 31.09L89.1454 35.96C88.4954 36.28 87.5154 36.58 86.1954 36.84C84.8754 37.1 83.5254 37.23 82.1254 37.23C79.9454 37.23 78.0554 36.9 76.4454 36.23C74.8354 35.56 73.5054 34.64 72.4554 33.45C71.3954 32.26 70.6154 30.85 70.0954 29.21C69.5754 27.57 69.3154 25.79 69.3154 23.88L69.3054 23.87Z" fill="#121212"/>
<path d="M15.8252 10.92C14.2852 10.81 10.9752 10.98 9.55521 11.23C6.28521 11.81 6.46521 12.42 3.78521 16.01C2.85521 17.25 1.85521 19.07 1.11521 20.43C-0.364789 23.19 -0.344789 24.42 1.01521 27.25C1.68521 28.65 4.08521 32.5 5.54521 34.23C7.32521 36.34 6.66521 36.02 10.7352 36.64C11.9652 36.83 14.8752 36.82 16.1252 36.74C20.9452 36.41 20.4652 35.66 22.6952 32.85C23.7152 31.57 25.5752 28.74 26.2452 27.25C27.4752 24.49 27.7652 23.74 26.2452 20.43C25.3052 18.38 22.3452 14.24 21.3152 13.05C20.0452 11.58 19.3652 11.16 15.8252 10.92Z" fill="url(#paint0_linear_0_8726)"/>
<path opacity="0.11" d="M23.0452 32.41C24.0952 31 25.6552 28.59 26.2552 27.25C26.3652 27 26.4752 26.76 26.5652 26.54L10.5352 29.1L23.0452 32.41Z" fill="url(#paint1_linear_0_8726)"/>
<g style="mix-blend-mode:darken" opacity="0.3">
<path d="M10.5352 29.1L6.85522 35.72C7.46522 36.24 8.12522 36.25 10.7452 36.65C11.9752 36.84 14.8852 36.83 16.1352 36.75C17.5552 36.65 18.5152 36.52 19.2152 36.31L10.5352 29.11V29.1Z" fill="url(#paint2_linear_0_8726)"/>
</g>
<g style="mix-blend-mode:screen" opacity="0.3">
<path d="M0.635254 26.41L10.5353 29.1L19.8053 11.71L0.635254 26.39V26.41Z" fill="url(#paint3_linear_0_8726)"/>
</g>
<g style="mix-blend-mode:multiply" opacity="0.14">
<path d="M10.5352 29.1L26.5652 26.54C27.5252 24.33 27.6352 23.44 26.2552 20.43C25.3152 18.38 22.3552 14.24 21.3252 13.05C20.8052 12.45 20.3852 12.02 19.8252 11.71L10.5452 29.09L10.5352 29.1Z" fill="url(#paint4_linear_0_8726)"/>
</g>
<g style="mix-blend-mode:multiply" opacity="0.14">
<path d="M10.5352 29.1L26.5652 26.54C27.5252 24.33 27.6352 23.44 26.2552 20.43C25.3152 18.38 22.3552 14.24 21.3252 13.05C20.8052 12.45 20.3852 12.02 19.8252 11.71L10.5452 29.09L10.5352 29.1Z" fill="url(#paint5_linear_0_8726)"/>
</g>
<path opacity="0.9" d="M1.02526 27.25C1.69526 28.65 4.09526 32.5 5.55526 34.23C6.15526 34.94 6.47526 35.37 6.79526 35.66C7.15526 35.88 7.54526 36.05 7.94526 36.2C8.51526 36.33 9.35526 36.43 10.7353 36.64C11.9653 36.83 14.8753 36.82 16.1253 36.74C16.3153 36.73 16.4853 36.71 16.6653 36.7C18.1653 36.51 19.1753 36.27 19.1753 36.27L0.645264 26.42C0.755264 26.68 0.885264 26.96 1.02526 27.26V27.25Z" fill="url(#paint6_linear_0_8726)"/>
<path opacity="0.5" d="M10.5353 29.1L0.635254 26.41L19.1753 36.28L19.2053 36.31C20.8953 35.8 21.1153 34.84 22.6953 32.86C22.8053 32.73 22.9153 32.58 23.0353 32.41L10.5253 29.1H10.5353Z" fill="url(#paint7_linear_0_8726)"/>
<path opacity="0.25" d="M19.2152 36.31C20.9052 35.8 21.1252 34.84 22.7052 32.86C22.8152 32.73 22.9252 32.58 23.0452 32.41L10.5352 29.1L19.2152 36.3V36.31Z" fill="url(#paint8_linear_0_8726)"/>
<path opacity="0.45" d="M19.8051 11.71C18.9951 11.27 17.9051 11.07 15.8351 10.92C14.2951 10.81 10.9851 10.98 9.56511 11.23C6.29511 11.81 6.47511 12.42 3.79511 16.01C3.10511 16.94 2.36511 18.18 1.73511 19.32L19.8151 11.71H19.8051Z" fill="url(#paint9_linear_0_8726)"/>
<defs>
<linearGradient id="paint0_linear_0_8726" x1="0.00521132" y1="36.8044" x2="27.2852" y2="36.8044" gradientUnits="userSpaceOnUse">
<stop offset="0.02" stop-color="#C0242E"/>
<stop offset="1" stop-color="#C1462D"/>
</linearGradient>
<linearGradient id="paint1_linear_0_8726" x1="10.5352" y1="32.405" x2="26.5652" y2="32.405" gradientUnits="userSpaceOnUse">
<stop offset="0.08" stop-color="white"/>
<stop offset="1" stop-color="white" stop-opacity="0.01"/>
</linearGradient>
<linearGradient id="paint2_linear_0_8726" x1="10.409" y1="30.0957" x2="8.82153" y2="37.1814" gradientUnits="userSpaceOnUse">
<stop offset="0.02" stop-color="#231F20"/>
<stop offset="0.82" stop-color="#231F20" stop-opacity="0.01"/>
</linearGradient>
<linearGradient id="paint3_linear_0_8726" x1="20.9173" y1="30.7598" x2="18.6938" y2="15.4123" gradientUnits="userSpaceOnUse">
<stop stop-color="white"/>
<stop offset="1" stop-color="white" stop-opacity="0.01"/>
</linearGradient>
<linearGradient id="paint4_linear_0_8726" x1="13.7158" y1="35.1856" x2="29.5644" y2="26.6972" gradientUnits="userSpaceOnUse">
<stop stop-color="#231F20"/>
<stop offset="1" stop-color="#231F20" stop-opacity="0.01"/>
</linearGradient>
<linearGradient id="paint5_linear_0_8726" x1="13.7158" y1="35.1856" x2="29.5644" y2="26.6972" gradientUnits="userSpaceOnUse">
<stop stop-color="#231F20"/>
<stop offset="1" stop-color="#231F20" stop-opacity="0.01"/>
</linearGradient>
<linearGradient id="paint6_linear_0_8726" x1="-6.86351" y1="35.0298" x2="4.96623" y2="48.7821" gradientUnits="userSpaceOnUse">
<stop stop-color="#421F20" stop-opacity="0.4"/>
<stop offset="1" stop-color="#361F20"/>
</linearGradient>
<linearGradient id="paint7_linear_0_8726" x1="-8.45212" y1="31.6375" x2="-0.303719" y2="46.8173" gradientUnits="userSpaceOnUse">
<stop stop-color="#421F20" stop-opacity="0.4"/>
<stop offset="1" stop-color="#361F20"/>
</linearGradient>
<linearGradient id="paint8_linear_0_8726" x1="17.1872" y1="36.0209" x2="21.1482" y2="29.136" gradientUnits="userSpaceOnUse">
<stop stop-color="#231F20"/>
<stop offset="1" stop-color="#231F20" stop-opacity="0.01"/>
</linearGradient>
<linearGradient id="paint9_linear_0_8726" x1="11.1764" y1="20.0617" x2="18.9689" y2="7.02243" gradientUnits="userSpaceOnUse">
<stop stop-color="white" stop-opacity="0.01"/>
<stop offset="1" stop-color="white"/>
</linearGradient>
</defs>
</svg>
