<svg width="52" height="52" viewBox="0 0 52 52" fill="none" xmlns="http://www.w3.org/2000/svg">
<circle opacity="0.7" cx="26" cy="26" r="25" stroke="#333333"/>
<path d="M26.8721 21.0847L26.2939 20.5066C26.0492 20.2618 25.6533 20.2618 25.4111 20.5066L20.3486 25.5665C20.1038 25.8113 20.1038 26.2071 20.3486 26.4493L25.4111 31.5118C25.6559 31.7566 26.0518 31.7566 26.2939 31.5118L26.8721 30.9337C27.1195 30.6863 27.1143 30.2826 26.8617 30.0404L23.7236 27.0509H31.208C31.5544 27.0509 31.833 26.7722 31.833 26.4259V25.5925C31.833 25.2462 31.5544 24.9675 31.208 24.9675H23.7236L26.8617 21.9779C27.1169 21.7358 27.1221 21.3321 26.8721 21.0847Z" fill="black"/>
<mask id="mask0_0_287" style="mask-type:luminance" maskUnits="userSpaceOnUse" x="20" y="20" width="12" height="12">
<path d="M26.8721 21.0847L26.2939 20.5066C26.0492 20.2618 25.6533 20.2618 25.4111 20.5066L20.3486 25.5665C20.1038 25.8113 20.1038 26.2071 20.3486 26.4493L25.4111 31.5118C25.6559 31.7566 26.0518 31.7566 26.2939 31.5118L26.8721 30.9337C27.1195 30.6863 27.1143 30.2826 26.8617 30.0404L23.7236 27.0509H31.208C31.5544 27.0509 31.833 26.7722 31.833 26.4259V25.5925C31.833 25.2462 31.5544 24.9675 31.208 24.9675H23.7236L26.8617 21.9779C27.1169 21.7358 27.1221 21.3321 26.8721 21.0847Z" fill="white"/>
</mask>
<g mask="url(#mask0_0_287)">
<rect width="13.3333" height="13.3333" transform="matrix(-1 0 0 1 32.6665 19.3334)" fill="#333333"/>
</g>
</svg>
