<svg width="52" height="52" viewBox="0 0 52 52" fill="none" xmlns="http://www.w3.org/2000/svg">
<circle opacity="0.7" cx="26" cy="26" r="25" stroke="#333333"/>
<path d="M25.1279 21.0847L25.7061 20.5066C25.9508 20.2618 26.3467 20.2618 26.5889 20.5066L31.6514 25.5665C31.8962 25.8113 31.8962 26.2071 31.6514 26.4493L26.5889 31.5118C26.3441 31.7566 25.9482 31.7566 25.7061 31.5118L25.1279 30.9337C24.8805 30.6863 24.8857 30.2826 25.1383 30.0404L28.2764 27.0509H20.792C20.4456 27.0509 20.167 26.7722 20.167 26.4259V25.5925C20.167 25.2462 20.4456 24.9675 20.792 24.9675H28.2764L25.1383 21.9779C24.8831 21.7358 24.8779 21.3321 25.1279 21.0847Z" fill="black"/>
<mask id="mask0_0_288" style="mask-type:luminance" maskUnits="userSpaceOnUse" x="20" y="20" width="12" height="12">
<path d="M25.1279 21.0847L25.7061 20.5066C25.9508 20.2618 26.3467 20.2618 26.5889 20.5066L31.6514 25.5665C31.8962 25.8113 31.8962 26.2071 31.6514 26.4493L26.5889 31.5118C26.3441 31.7566 25.9482 31.7566 25.7061 31.5118L25.1279 30.9337C24.8805 30.6863 24.8857 30.2826 25.1383 30.0404L28.2764 27.0509H20.792C20.4456 27.0509 20.167 26.7722 20.167 26.4259V25.5925C20.167 25.2462 20.4456 24.9675 20.792 24.9675H28.2764L25.1383 21.9779C24.8831 21.7358 24.8779 21.3321 25.1279 21.0847Z" fill="white"/>
</mask>
<g mask="url(#mask0_0_288)">
<rect x="19.3335" y="19.3334" width="13.3333" height="13.3333" fill="#333333"/>
</g>
</svg>
